<mxfile host="app.diagrams.net" agent="Mozilla/5.0 (Windows NT 10.0; Win64; x64) AppleWebKit/537.36 (KHTML, like Gecko) Chrome/129.0.0.0 Safari/537.36 Edg/129.0.0.0" version="24.7.17">
  <diagram name="Trang-1" id="5MpEeCYLcMmnyMq-eZr1">
    <mxGraphModel dx="1213" dy="627" grid="0" gridSize="10" guides="1" tooltips="1" connect="1" arrows="1" fold="1" page="1" pageScale="1" pageWidth="850" pageHeight="1100" math="0" shadow="0">
      <root>
        <mxCell id="0" />
        <mxCell id="1" parent="0" />
        <mxCell id="8tfWesdkJqedTnPdc9yw-1" value="Bắt đầu" style="ellipse;whiteSpace=wrap;html=1;" parent="1" vertex="1">
          <mxGeometry x="385" y="340" width="70" height="40" as="geometry" />
        </mxCell>
        <mxCell id="8tfWesdkJqedTnPdc9yw-2" value="Khởi tạo BLE Stack" style="rounded=0;whiteSpace=wrap;html=1;" parent="1" vertex="1">
          <mxGeometry x="470" y="420" width="90" height="50" as="geometry" />
        </mxCell>
        <mxCell id="8tfWesdkJqedTnPdc9yw-3" value="Khởi tạo system, UART task, SDCard task" style="rounded=0;whiteSpace=wrap;html=1;" parent="1" vertex="1">
          <mxGeometry x="280" y="420" width="89" height="54" as="geometry" />
        </mxCell>
        <mxCell id="8tfWesdkJqedTnPdc9yw-4" value="Cấu hình thông số BLE: UUID, Char UUID, GATT Server name..." style="rounded=0;whiteSpace=wrap;html=1;" parent="1" vertex="1">
          <mxGeometry x="455" y="500" width="120" height="60" as="geometry" />
        </mxCell>
        <mxCell id="8tfWesdkJqedTnPdc9yw-5" value="GATT Server connected" style="rhombus;whiteSpace=wrap;html=1;" parent="1" vertex="1">
          <mxGeometry x="460" y="590" width="110" height="80" as="geometry" />
        </mxCell>
        <mxCell id="8tfWesdkJqedTnPdc9yw-6" value="" style="endArrow=classic;html=1;rounded=0;exitX=0.5;exitY=1;exitDx=0;exitDy=0;" parent="1" source="8tfWesdkJqedTnPdc9yw-2" target="8tfWesdkJqedTnPdc9yw-4" edge="1">
          <mxGeometry width="50" height="50" relative="1" as="geometry">
            <mxPoint x="350" y="600" as="sourcePoint" />
            <mxPoint x="400" y="550" as="targetPoint" />
          </mxGeometry>
        </mxCell>
        <mxCell id="8tfWesdkJqedTnPdc9yw-7" value="" style="endArrow=classic;html=1;rounded=0;exitX=0.5;exitY=1;exitDx=0;exitDy=0;entryX=0.5;entryY=0;entryDx=0;entryDy=0;" parent="1" source="8tfWesdkJqedTnPdc9yw-4" target="8tfWesdkJqedTnPdc9yw-5" edge="1">
          <mxGeometry width="50" height="50" relative="1" as="geometry">
            <mxPoint x="350" y="600" as="sourcePoint" />
            <mxPoint x="400" y="550" as="targetPoint" />
          </mxGeometry>
        </mxCell>
        <mxCell id="8tfWesdkJqedTnPdc9yw-8" value="Nhận dữ liệu từ GATT Client" style="rounded=0;whiteSpace=wrap;html=1;" parent="1" vertex="1">
          <mxGeometry x="467.5" y="710" width="95" height="50" as="geometry" />
        </mxCell>
        <mxCell id="8tfWesdkJqedTnPdc9yw-9" value="" style="endArrow=classic;html=1;rounded=0;exitX=0.5;exitY=1;exitDx=0;exitDy=0;entryX=0.5;entryY=0;entryDx=0;entryDy=0;" parent="1" source="8tfWesdkJqedTnPdc9yw-5" target="8tfWesdkJqedTnPdc9yw-8" edge="1">
          <mxGeometry width="50" height="50" relative="1" as="geometry">
            <mxPoint x="350" y="600" as="sourcePoint" />
            <mxPoint x="400" y="550" as="targetPoint" />
          </mxGeometry>
        </mxCell>
        <mxCell id="8tfWesdkJqedTnPdc9yw-10" value="" style="endArrow=classic;html=1;rounded=0;exitX=1;exitY=0.5;exitDx=0;exitDy=0;" parent="1" source="8tfWesdkJqedTnPdc9yw-5" edge="1">
          <mxGeometry width="50" height="50" relative="1" as="geometry">
            <mxPoint x="565" y="623" as="sourcePoint" />
            <mxPoint x="515" y="570" as="targetPoint" />
            <Array as="points">
              <mxPoint x="600" y="630" />
              <mxPoint x="600" y="570" />
            </Array>
          </mxGeometry>
        </mxCell>
        <mxCell id="8tfWesdkJqedTnPdc9yw-11" value="S" style="text;html=1;align=center;verticalAlign=middle;whiteSpace=wrap;rounded=0;" parent="1" vertex="1">
          <mxGeometry x="562.5" y="590" width="60" height="30" as="geometry" />
        </mxCell>
        <mxCell id="8tfWesdkJqedTnPdc9yw-12" value="Đ" style="text;html=1;align=center;verticalAlign=middle;whiteSpace=wrap;rounded=0;" parent="1" vertex="1">
          <mxGeometry x="490" y="670" width="60" height="30" as="geometry" />
        </mxCell>
        <mxCell id="8tfWesdkJqedTnPdc9yw-13" value="Chuyển dữ liệu tới UART task" style="rounded=0;whiteSpace=wrap;html=1;" parent="1" vertex="1">
          <mxGeometry x="470" y="790" width="90" height="40" as="geometry" />
        </mxCell>
        <mxCell id="8tfWesdkJqedTnPdc9yw-14" value="" style="endArrow=classic;html=1;rounded=0;exitX=0.5;exitY=1;exitDx=0;exitDy=0;entryX=0.5;entryY=0;entryDx=0;entryDy=0;" parent="1" source="8tfWesdkJqedTnPdc9yw-8" target="8tfWesdkJqedTnPdc9yw-13" edge="1">
          <mxGeometry width="50" height="50" relative="1" as="geometry">
            <mxPoint x="330" y="650" as="sourcePoint" />
            <mxPoint x="380" y="600" as="targetPoint" />
          </mxGeometry>
        </mxCell>
        <mxCell id="8tfWesdkJqedTnPdc9yw-15" value="Chờ dữ liệu BLE: bản tin config,..." style="rounded=0;whiteSpace=wrap;html=1;" parent="1" vertex="1">
          <mxGeometry x="277.5" y="510" width="95" height="40" as="geometry" />
        </mxCell>
        <mxCell id="8tfWesdkJqedTnPdc9yw-16" value="" style="endArrow=classic;html=1;rounded=0;exitX=0.5;exitY=1;exitDx=0;exitDy=0;" parent="1" source="8tfWesdkJqedTnPdc9yw-3" target="8tfWesdkJqedTnPdc9yw-15" edge="1">
          <mxGeometry width="50" height="50" relative="1" as="geometry">
            <mxPoint x="330" y="650" as="sourcePoint" />
            <mxPoint x="380" y="600" as="targetPoint" />
          </mxGeometry>
        </mxCell>
        <mxCell id="8tfWesdkJqedTnPdc9yw-17" value="" style="endArrow=classic;html=1;rounded=0;" parent="1" edge="1">
          <mxGeometry width="50" height="50" relative="1" as="geometry">
            <mxPoint x="470" y="810" as="sourcePoint" />
            <mxPoint x="325" y="490" as="targetPoint" />
            <Array as="points">
              <mxPoint x="440" y="810" />
              <mxPoint x="440" y="490" />
            </Array>
          </mxGeometry>
        </mxCell>
        <mxCell id="8tfWesdkJqedTnPdc9yw-18" value="" style="endArrow=none;html=1;rounded=0;entryX=0.5;entryY=1;entryDx=0;entryDy=0;" parent="1" target="8tfWesdkJqedTnPdc9yw-1" edge="1">
          <mxGeometry width="50" height="50" relative="1" as="geometry">
            <mxPoint x="420" y="400" as="sourcePoint" />
            <mxPoint x="430" y="550" as="targetPoint" />
          </mxGeometry>
        </mxCell>
        <mxCell id="8tfWesdkJqedTnPdc9yw-19" value="" style="endArrow=classic;html=1;rounded=0;entryX=0.5;entryY=0;entryDx=0;entryDy=0;" parent="1" target="8tfWesdkJqedTnPdc9yw-2" edge="1">
          <mxGeometry width="50" height="50" relative="1" as="geometry">
            <mxPoint x="420" y="400" as="sourcePoint" />
            <mxPoint x="430" y="550" as="targetPoint" />
            <Array as="points">
              <mxPoint x="515" y="400" />
            </Array>
          </mxGeometry>
        </mxCell>
        <mxCell id="8tfWesdkJqedTnPdc9yw-20" value="" style="endArrow=classic;html=1;rounded=0;entryX=0.5;entryY=0;entryDx=0;entryDy=0;" parent="1" target="8tfWesdkJqedTnPdc9yw-3" edge="1">
          <mxGeometry width="50" height="50" relative="1" as="geometry">
            <mxPoint x="420" y="400" as="sourcePoint" />
            <mxPoint x="430" y="550" as="targetPoint" />
            <Array as="points">
              <mxPoint x="325" y="400" />
            </Array>
          </mxGeometry>
        </mxCell>
        <mxCell id="8tfWesdkJqedTnPdc9yw-21" value="Chuyển dữ liệu BLE xuống MCU STM32" style="rounded=0;whiteSpace=wrap;html=1;" parent="1" vertex="1">
          <mxGeometry x="271.25" y="585" width="108.75" height="45" as="geometry" />
        </mxCell>
        <mxCell id="8tfWesdkJqedTnPdc9yw-22" value="" style="endArrow=classic;html=1;rounded=0;exitX=0.5;exitY=1;exitDx=0;exitDy=0;entryX=0.5;entryY=0;entryDx=0;entryDy=0;" parent="1" source="8tfWesdkJqedTnPdc9yw-15" target="8tfWesdkJqedTnPdc9yw-21" edge="1">
          <mxGeometry width="50" height="50" relative="1" as="geometry">
            <mxPoint x="380" y="680" as="sourcePoint" />
            <mxPoint x="430" y="630" as="targetPoint" />
          </mxGeometry>
        </mxCell>
        <mxCell id="8tfWesdkJqedTnPdc9yw-23" value="Dữ liệu từ STM32 = Config_done?" style="rhombus;whiteSpace=wrap;html=1;" parent="1" vertex="1">
          <mxGeometry x="240.63" y="660" width="170" height="80" as="geometry" />
        </mxCell>
        <mxCell id="8tfWesdkJqedTnPdc9yw-25" value="" style="endArrow=classic;html=1;rounded=0;exitX=0;exitY=0.5;exitDx=0;exitDy=0;" parent="1" source="8tfWesdkJqedTnPdc9yw-23" edge="1">
          <mxGeometry width="50" height="50" relative="1" as="geometry">
            <mxPoint x="380" y="680" as="sourcePoint" />
            <mxPoint x="326" y="490" as="targetPoint" />
            <Array as="points">
              <mxPoint x="240" y="490" />
            </Array>
          </mxGeometry>
        </mxCell>
        <mxCell id="8tfWesdkJqedTnPdc9yw-26" value="S" style="text;html=1;align=center;verticalAlign=middle;whiteSpace=wrap;rounded=0;" parent="1" vertex="1">
          <mxGeometry x="217.5" y="640" width="60" height="30" as="geometry" />
        </mxCell>
        <mxCell id="8tfWesdkJqedTnPdc9yw-27" value="Gửi dữ liệu đo được lên GATT Client" style="rounded=0;whiteSpace=wrap;html=1;" parent="1" vertex="1">
          <mxGeometry x="266.26" y="864" width="118.75" height="40" as="geometry" />
        </mxCell>
        <mxCell id="8tfWesdkJqedTnPdc9yw-28" value="" style="endArrow=classic;html=1;rounded=0;exitX=0.5;exitY=1;exitDx=0;exitDy=0;entryX=0.372;entryY=0.939;entryDx=0;entryDy=0;entryPerimeter=0;" parent="1" source="8tfWesdkJqedTnPdc9yw-23" edge="1">
          <mxGeometry width="50" height="50" relative="1" as="geometry">
            <mxPoint x="380" y="820" as="sourcePoint" />
            <mxPoint x="325.32000000000016" y="767.1700000000001" as="targetPoint" />
          </mxGeometry>
        </mxCell>
        <mxCell id="8tfWesdkJqedTnPdc9yw-30" value="Kết thúc" style="ellipse;whiteSpace=wrap;html=1;" parent="1" vertex="1">
          <mxGeometry x="639" y="864" width="70" height="40" as="geometry" />
        </mxCell>
        <mxCell id="8tfWesdkJqedTnPdc9yw-31" value="" style="endArrow=classic;html=1;rounded=0;exitX=1;exitY=0.5;exitDx=0;exitDy=0;entryX=0;entryY=0.5;entryDx=0;entryDy=0;" parent="1" source="BnnEWRheOMcrQ9V38Cjb-11" target="8tfWesdkJqedTnPdc9yw-30" edge="1">
          <mxGeometry width="50" height="50" relative="1" as="geometry">
            <mxPoint x="652.635" y="834" as="sourcePoint" />
            <mxPoint x="757" y="784" as="targetPoint" />
          </mxGeometry>
        </mxCell>
        <mxCell id="BnnEWRheOMcrQ9V38Cjb-1" value="" style="endArrow=classic;html=1;rounded=0;entryX=0.5;entryY=0;entryDx=0;entryDy=0;exitX=0.5;exitY=1;exitDx=0;exitDy=0;" parent="1" source="8tfWesdkJqedTnPdc9yw-21" target="8tfWesdkJqedTnPdc9yw-23" edge="1">
          <mxGeometry width="50" height="50" relative="1" as="geometry">
            <mxPoint x="324" y="631" as="sourcePoint" />
            <mxPoint x="465" y="607" as="targetPoint" />
          </mxGeometry>
        </mxCell>
        <mxCell id="BnnEWRheOMcrQ9V38Cjb-3" value="Chờ dữ liệu đo từ&amp;nbsp;&lt;div&gt;STM32&lt;/div&gt;" style="rhombus;whiteSpace=wrap;html=1;" parent="1" vertex="1">
          <mxGeometry x="251.14000000000001" y="768" width="149" height="69" as="geometry" />
        </mxCell>
        <mxCell id="BnnEWRheOMcrQ9V38Cjb-4" value="" style="endArrow=classic;html=1;rounded=0;exitX=0.5;exitY=1;exitDx=0;exitDy=0;" parent="1" source="BnnEWRheOMcrQ9V38Cjb-3" edge="1">
          <mxGeometry width="50" height="50" relative="1" as="geometry">
            <mxPoint x="378" y="697" as="sourcePoint" />
            <mxPoint x="326" y="863" as="targetPoint" />
          </mxGeometry>
        </mxCell>
        <mxCell id="BnnEWRheOMcrQ9V38Cjb-5" value="Đ" style="text;html=1;align=center;verticalAlign=middle;whiteSpace=wrap;rounded=0;" parent="1" vertex="1">
          <mxGeometry x="304" y="735" width="60" height="30" as="geometry" />
        </mxCell>
        <mxCell id="BnnEWRheOMcrQ9V38Cjb-6" value="Đ" style="text;html=1;align=center;verticalAlign=middle;whiteSpace=wrap;rounded=0;" parent="1" vertex="1">
          <mxGeometry x="304" y="830" width="60" height="30" as="geometry" />
        </mxCell>
        <mxCell id="BnnEWRheOMcrQ9V38Cjb-7" value="" style="endArrow=classic;html=1;rounded=0;exitX=0;exitY=0.5;exitDx=0;exitDy=0;" parent="1" source="BnnEWRheOMcrQ9V38Cjb-3" edge="1">
          <mxGeometry width="50" height="50" relative="1" as="geometry">
            <mxPoint x="194" y="807" as="sourcePoint" />
            <mxPoint x="325" y="749" as="targetPoint" />
            <Array as="points">
              <mxPoint x="252" y="749" />
            </Array>
          </mxGeometry>
        </mxCell>
        <mxCell id="BnnEWRheOMcrQ9V38Cjb-9" value="S" style="text;html=1;align=center;verticalAlign=middle;whiteSpace=wrap;rounded=0;" parent="1" vertex="1">
          <mxGeometry x="226" y="757" width="60" height="30" as="geometry" />
        </mxCell>
        <mxCell id="BnnEWRheOMcrQ9V38Cjb-11" value="Chờ tín hiệu save data&amp;nbsp;&lt;div&gt;để lưu vào SDCard&lt;/div&gt;" style="rhombus;whiteSpace=wrap;html=1;" parent="1" vertex="1">
          <mxGeometry x="415" y="846.5" width="186" height="75" as="geometry" />
        </mxCell>
        <mxCell id="BnnEWRheOMcrQ9V38Cjb-12" value="" style="endArrow=classic;html=1;rounded=0;exitX=1;exitY=0.5;exitDx=0;exitDy=0;entryX=0;entryY=0.5;entryDx=0;entryDy=0;" parent="1" source="8tfWesdkJqedTnPdc9yw-27" target="BnnEWRheOMcrQ9V38Cjb-11" edge="1">
          <mxGeometry width="50" height="50" relative="1" as="geometry">
            <mxPoint x="401" y="689" as="sourcePoint" />
            <mxPoint x="451" y="639" as="targetPoint" />
          </mxGeometry>
        </mxCell>
        <mxCell id="BnnEWRheOMcrQ9V38Cjb-13" value="Đ" style="text;html=1;align=center;verticalAlign=middle;whiteSpace=wrap;rounded=0;" parent="1" vertex="1">
          <mxGeometry x="587" y="860" width="60" height="30" as="geometry" />
        </mxCell>
        <mxCell id="BnnEWRheOMcrQ9V38Cjb-14" value="" style="endArrow=classic;html=1;rounded=0;exitX=0.5;exitY=1;exitDx=0;exitDy=0;entryX=0;entryY=0.5;entryDx=0;entryDy=0;" parent="1" source="BnnEWRheOMcrQ9V38Cjb-11" target="8tfWesdkJqedTnPdc9yw-23" edge="1">
          <mxGeometry width="50" height="50" relative="1" as="geometry">
            <mxPoint x="401" y="689" as="sourcePoint" />
            <mxPoint x="451" y="639" as="targetPoint" />
            <Array as="points">
              <mxPoint x="241" y="922" />
            </Array>
          </mxGeometry>
        </mxCell>
        <mxCell id="BnnEWRheOMcrQ9V38Cjb-15" value="S" style="text;html=1;align=center;verticalAlign=middle;whiteSpace=wrap;rounded=0;" parent="1" vertex="1">
          <mxGeometry x="393" y="899" width="60" height="30" as="geometry" />
        </mxCell>
        <mxCell id="sMh_wkTlDlG_Dic9zlam-1" value="START" style="ellipse;whiteSpace=wrap;html=1;" vertex="1" parent="1">
          <mxGeometry x="357.5" y="1179" width="70" height="40" as="geometry" />
        </mxCell>
        <mxCell id="sMh_wkTlDlG_Dic9zlam-2" value="Initialize BLE Stack" style="rounded=0;whiteSpace=wrap;html=1;" vertex="1" parent="1">
          <mxGeometry x="442.5" y="1259" width="90" height="50" as="geometry" />
        </mxCell>
        <mxCell id="sMh_wkTlDlG_Dic9zlam-3" value="Initialize system, UART task, SDCard task" style="rounded=0;whiteSpace=wrap;html=1;" vertex="1" parent="1">
          <mxGeometry x="252.5" y="1259" width="89" height="55" as="geometry" />
        </mxCell>
        <mxCell id="sMh_wkTlDlG_Dic9zlam-4" value="Configure BLE parameters: UUID, Char UUID, GATT Server name..." style="rounded=0;whiteSpace=wrap;html=1;" vertex="1" parent="1">
          <mxGeometry x="427.5" y="1339" width="120" height="60" as="geometry" />
        </mxCell>
        <mxCell id="sMh_wkTlDlG_Dic9zlam-5" value="GATT Server connected" style="rhombus;whiteSpace=wrap;html=1;" vertex="1" parent="1">
          <mxGeometry x="432.5" y="1429" width="110" height="80" as="geometry" />
        </mxCell>
        <mxCell id="sMh_wkTlDlG_Dic9zlam-6" value="" style="endArrow=classic;html=1;rounded=0;exitX=0.5;exitY=1;exitDx=0;exitDy=0;" edge="1" parent="1" source="sMh_wkTlDlG_Dic9zlam-2" target="sMh_wkTlDlG_Dic9zlam-4">
          <mxGeometry width="50" height="50" relative="1" as="geometry">
            <mxPoint x="322.5" y="1439" as="sourcePoint" />
            <mxPoint x="372.5" y="1389" as="targetPoint" />
          </mxGeometry>
        </mxCell>
        <mxCell id="sMh_wkTlDlG_Dic9zlam-7" value="" style="endArrow=classic;html=1;rounded=0;exitX=0.5;exitY=1;exitDx=0;exitDy=0;entryX=0.5;entryY=0;entryDx=0;entryDy=0;" edge="1" parent="1" source="sMh_wkTlDlG_Dic9zlam-4" target="sMh_wkTlDlG_Dic9zlam-5">
          <mxGeometry width="50" height="50" relative="1" as="geometry">
            <mxPoint x="322.5" y="1439" as="sourcePoint" />
            <mxPoint x="372.5" y="1389" as="targetPoint" />
          </mxGeometry>
        </mxCell>
        <mxCell id="sMh_wkTlDlG_Dic9zlam-8" value="Get data from GATT Client" style="rounded=0;whiteSpace=wrap;html=1;" vertex="1" parent="1">
          <mxGeometry x="440" y="1549" width="95" height="50" as="geometry" />
        </mxCell>
        <mxCell id="sMh_wkTlDlG_Dic9zlam-9" value="" style="endArrow=classic;html=1;rounded=0;exitX=0.5;exitY=1;exitDx=0;exitDy=0;entryX=0.5;entryY=0;entryDx=0;entryDy=0;" edge="1" parent="1" source="sMh_wkTlDlG_Dic9zlam-5" target="sMh_wkTlDlG_Dic9zlam-8">
          <mxGeometry width="50" height="50" relative="1" as="geometry">
            <mxPoint x="322.5" y="1439" as="sourcePoint" />
            <mxPoint x="372.5" y="1389" as="targetPoint" />
          </mxGeometry>
        </mxCell>
        <mxCell id="sMh_wkTlDlG_Dic9zlam-10" value="" style="endArrow=classic;html=1;rounded=0;exitX=1;exitY=0.5;exitDx=0;exitDy=0;" edge="1" parent="1" source="sMh_wkTlDlG_Dic9zlam-5">
          <mxGeometry width="50" height="50" relative="1" as="geometry">
            <mxPoint x="537.5" y="1462" as="sourcePoint" />
            <mxPoint x="487.5" y="1409" as="targetPoint" />
            <Array as="points">
              <mxPoint x="572.5" y="1469" />
              <mxPoint x="572.5" y="1409" />
            </Array>
          </mxGeometry>
        </mxCell>
        <mxCell id="sMh_wkTlDlG_Dic9zlam-11" value="False" style="text;html=1;align=center;verticalAlign=middle;whiteSpace=wrap;rounded=0;" vertex="1" parent="1">
          <mxGeometry x="526" y="1429" width="60" height="30" as="geometry" />
        </mxCell>
        <mxCell id="sMh_wkTlDlG_Dic9zlam-12" value="True" style="text;html=1;align=center;verticalAlign=middle;whiteSpace=wrap;rounded=0;" vertex="1" parent="1">
          <mxGeometry x="471.5" y="1509" width="60" height="30" as="geometry" />
        </mxCell>
        <mxCell id="sMh_wkTlDlG_Dic9zlam-13" value="Transfer data to UART task" style="rounded=0;whiteSpace=wrap;html=1;" vertex="1" parent="1">
          <mxGeometry x="442.5" y="1629" width="90" height="40" as="geometry" />
        </mxCell>
        <mxCell id="sMh_wkTlDlG_Dic9zlam-14" value="" style="endArrow=classic;html=1;rounded=0;exitX=0.5;exitY=1;exitDx=0;exitDy=0;entryX=0.5;entryY=0;entryDx=0;entryDy=0;" edge="1" parent="1" source="sMh_wkTlDlG_Dic9zlam-8" target="sMh_wkTlDlG_Dic9zlam-13">
          <mxGeometry width="50" height="50" relative="1" as="geometry">
            <mxPoint x="302.5" y="1489" as="sourcePoint" />
            <mxPoint x="352.5" y="1439" as="targetPoint" />
          </mxGeometry>
        </mxCell>
        <mxCell id="sMh_wkTlDlG_Dic9zlam-15" value="Waiting for BLE data: config message,..." style="rounded=0;whiteSpace=wrap;html=1;" vertex="1" parent="1">
          <mxGeometry x="250" y="1349" width="95" height="46" as="geometry" />
        </mxCell>
        <mxCell id="sMh_wkTlDlG_Dic9zlam-16" value="" style="endArrow=classic;html=1;rounded=0;exitX=0.5;exitY=1;exitDx=0;exitDy=0;" edge="1" parent="1" source="sMh_wkTlDlG_Dic9zlam-3" target="sMh_wkTlDlG_Dic9zlam-15">
          <mxGeometry width="50" height="50" relative="1" as="geometry">
            <mxPoint x="302.5" y="1489" as="sourcePoint" />
            <mxPoint x="352.5" y="1439" as="targetPoint" />
          </mxGeometry>
        </mxCell>
        <mxCell id="sMh_wkTlDlG_Dic9zlam-17" value="" style="endArrow=classic;html=1;rounded=0;" edge="1" parent="1">
          <mxGeometry width="50" height="50" relative="1" as="geometry">
            <mxPoint x="442.5" y="1649" as="sourcePoint" />
            <mxPoint x="297.5" y="1329" as="targetPoint" />
            <Array as="points">
              <mxPoint x="412.5" y="1649" />
              <mxPoint x="412.5" y="1329" />
            </Array>
          </mxGeometry>
        </mxCell>
        <mxCell id="sMh_wkTlDlG_Dic9zlam-18" value="" style="endArrow=none;html=1;rounded=0;entryX=0.5;entryY=1;entryDx=0;entryDy=0;" edge="1" parent="1" target="sMh_wkTlDlG_Dic9zlam-1">
          <mxGeometry width="50" height="50" relative="1" as="geometry">
            <mxPoint x="392.5" y="1239" as="sourcePoint" />
            <mxPoint x="402.5" y="1389" as="targetPoint" />
          </mxGeometry>
        </mxCell>
        <mxCell id="sMh_wkTlDlG_Dic9zlam-19" value="" style="endArrow=classic;html=1;rounded=0;entryX=0.5;entryY=0;entryDx=0;entryDy=0;" edge="1" parent="1" target="sMh_wkTlDlG_Dic9zlam-2">
          <mxGeometry width="50" height="50" relative="1" as="geometry">
            <mxPoint x="392.5" y="1239" as="sourcePoint" />
            <mxPoint x="402.5" y="1389" as="targetPoint" />
            <Array as="points">
              <mxPoint x="487.5" y="1239" />
            </Array>
          </mxGeometry>
        </mxCell>
        <mxCell id="sMh_wkTlDlG_Dic9zlam-20" value="" style="endArrow=classic;html=1;rounded=0;entryX=0.5;entryY=0;entryDx=0;entryDy=0;" edge="1" parent="1" target="sMh_wkTlDlG_Dic9zlam-3">
          <mxGeometry width="50" height="50" relative="1" as="geometry">
            <mxPoint x="392.5" y="1239" as="sourcePoint" />
            <mxPoint x="402.5" y="1389" as="targetPoint" />
            <Array as="points">
              <mxPoint x="297.5" y="1239" />
            </Array>
          </mxGeometry>
        </mxCell>
        <mxCell id="sMh_wkTlDlG_Dic9zlam-21" value="Transfer BLE data to STM32 MCU" style="rounded=0;whiteSpace=wrap;html=1;" vertex="1" parent="1">
          <mxGeometry x="243.75" y="1424" width="108.75" height="45" as="geometry" />
        </mxCell>
        <mxCell id="sMh_wkTlDlG_Dic9zlam-22" value="" style="endArrow=classic;html=1;rounded=0;exitX=0.5;exitY=1;exitDx=0;exitDy=0;entryX=0.5;entryY=0;entryDx=0;entryDy=0;" edge="1" parent="1" source="sMh_wkTlDlG_Dic9zlam-15" target="sMh_wkTlDlG_Dic9zlam-21">
          <mxGeometry width="50" height="50" relative="1" as="geometry">
            <mxPoint x="352.5" y="1519" as="sourcePoint" />
            <mxPoint x="402.5" y="1469" as="targetPoint" />
          </mxGeometry>
        </mxCell>
        <mxCell id="sMh_wkTlDlG_Dic9zlam-23" value="Data from STM32 = Config_done?" style="rhombus;whiteSpace=wrap;html=1;" vertex="1" parent="1">
          <mxGeometry x="213.13" y="1499" width="170" height="80" as="geometry" />
        </mxCell>
        <mxCell id="sMh_wkTlDlG_Dic9zlam-24" value="" style="endArrow=classic;html=1;rounded=0;exitX=0;exitY=0.5;exitDx=0;exitDy=0;" edge="1" parent="1" source="sMh_wkTlDlG_Dic9zlam-23">
          <mxGeometry width="50" height="50" relative="1" as="geometry">
            <mxPoint x="352.5" y="1519" as="sourcePoint" />
            <mxPoint x="298.5" y="1329" as="targetPoint" />
            <Array as="points">
              <mxPoint x="212.5" y="1329" />
            </Array>
          </mxGeometry>
        </mxCell>
        <mxCell id="sMh_wkTlDlG_Dic9zlam-25" value="False" style="text;html=1;align=center;verticalAlign=middle;whiteSpace=wrap;rounded=0;" vertex="1" parent="1">
          <mxGeometry x="200" y="1479" width="60" height="30" as="geometry" />
        </mxCell>
        <mxCell id="sMh_wkTlDlG_Dic9zlam-26" value="Submit measured data to GATT Client" style="rounded=0;whiteSpace=wrap;html=1;" vertex="1" parent="1">
          <mxGeometry x="238.76" y="1703" width="118.75" height="40" as="geometry" />
        </mxCell>
        <mxCell id="sMh_wkTlDlG_Dic9zlam-27" value="" style="endArrow=classic;html=1;rounded=0;exitX=0.5;exitY=1;exitDx=0;exitDy=0;entryX=0.372;entryY=0.939;entryDx=0;entryDy=0;entryPerimeter=0;" edge="1" parent="1" source="sMh_wkTlDlG_Dic9zlam-23">
          <mxGeometry width="50" height="50" relative="1" as="geometry">
            <mxPoint x="352.5" y="1659" as="sourcePoint" />
            <mxPoint x="297.82000000000016" y="1606.17" as="targetPoint" />
          </mxGeometry>
        </mxCell>
        <mxCell id="sMh_wkTlDlG_Dic9zlam-28" value="END" style="ellipse;whiteSpace=wrap;html=1;" vertex="1" parent="1">
          <mxGeometry x="611.5" y="1703" width="70" height="40" as="geometry" />
        </mxCell>
        <mxCell id="sMh_wkTlDlG_Dic9zlam-29" value="" style="endArrow=classic;html=1;rounded=0;exitX=1;exitY=0.5;exitDx=0;exitDy=0;entryX=0;entryY=0.5;entryDx=0;entryDy=0;" edge="1" parent="1" source="sMh_wkTlDlG_Dic9zlam-37" target="sMh_wkTlDlG_Dic9zlam-28">
          <mxGeometry width="50" height="50" relative="1" as="geometry">
            <mxPoint x="625.135" y="1673" as="sourcePoint" />
            <mxPoint x="729.5" y="1623" as="targetPoint" />
          </mxGeometry>
        </mxCell>
        <mxCell id="sMh_wkTlDlG_Dic9zlam-30" value="" style="endArrow=classic;html=1;rounded=0;entryX=0.5;entryY=0;entryDx=0;entryDy=0;exitX=0.5;exitY=1;exitDx=0;exitDy=0;" edge="1" parent="1" source="sMh_wkTlDlG_Dic9zlam-21" target="sMh_wkTlDlG_Dic9zlam-23">
          <mxGeometry width="50" height="50" relative="1" as="geometry">
            <mxPoint x="296.5" y="1470" as="sourcePoint" />
            <mxPoint x="437.5" y="1446" as="targetPoint" />
          </mxGeometry>
        </mxCell>
        <mxCell id="sMh_wkTlDlG_Dic9zlam-31" value="&lt;div&gt;&lt;span style=&quot;font-size: 11px; background-color: initial;&quot;&gt;&lt;br&gt;&lt;/span&gt;&lt;/div&gt;&lt;span style=&quot;font-size: 11px; background-color: initial;&quot;&gt;Waiting for measurement&lt;/span&gt;&lt;div&gt;&lt;div style=&quot;font-size: 11px;&quot;&gt;&lt;font style=&quot;font-size: 11px;&quot;&gt;data from STM32&lt;/font&gt;&lt;/div&gt;&lt;/div&gt;" style="rhombus;whiteSpace=wrap;html=1;" vertex="1" parent="1">
          <mxGeometry x="223.64" y="1607" width="149.36" height="67" as="geometry" />
        </mxCell>
        <mxCell id="sMh_wkTlDlG_Dic9zlam-32" value="" style="endArrow=classic;html=1;rounded=0;exitX=0.5;exitY=1;exitDx=0;exitDy=0;" edge="1" parent="1" source="sMh_wkTlDlG_Dic9zlam-31">
          <mxGeometry width="50" height="50" relative="1" as="geometry">
            <mxPoint x="350.5" y="1536" as="sourcePoint" />
            <mxPoint x="298.5" y="1702" as="targetPoint" />
          </mxGeometry>
        </mxCell>
        <mxCell id="sMh_wkTlDlG_Dic9zlam-33" value="True" style="text;html=1;align=center;verticalAlign=middle;whiteSpace=wrap;rounded=0;" vertex="1" parent="1">
          <mxGeometry x="281.5" y="1574" width="60" height="30" as="geometry" />
        </mxCell>
        <mxCell id="sMh_wkTlDlG_Dic9zlam-34" value="True" style="text;html=1;align=center;verticalAlign=middle;whiteSpace=wrap;rounded=0;" vertex="1" parent="1">
          <mxGeometry x="282.5" y="1669" width="60" height="30" as="geometry" />
        </mxCell>
        <mxCell id="sMh_wkTlDlG_Dic9zlam-35" value="" style="endArrow=classic;html=1;rounded=0;exitX=0;exitY=0.5;exitDx=0;exitDy=0;" edge="1" parent="1" source="sMh_wkTlDlG_Dic9zlam-31">
          <mxGeometry width="50" height="50" relative="1" as="geometry">
            <mxPoint x="166.5" y="1646" as="sourcePoint" />
            <mxPoint x="297.5" y="1588" as="targetPoint" />
            <Array as="points">
              <mxPoint x="224.5" y="1588" />
            </Array>
          </mxGeometry>
        </mxCell>
        <mxCell id="sMh_wkTlDlG_Dic9zlam-36" value="False" style="text;html=1;align=center;verticalAlign=middle;whiteSpace=wrap;rounded=0;" vertex="1" parent="1">
          <mxGeometry x="210.5" y="1596" width="60" height="30" as="geometry" />
        </mxCell>
        <mxCell id="sMh_wkTlDlG_Dic9zlam-37" value="&lt;font style=&quot;font-size: 11px;&quot;&gt;Wait for save data signal&amp;nbsp;&lt;/font&gt;&lt;div style=&quot;font-size: 11px;&quot;&gt;&lt;font style=&quot;font-size: 11px;&quot;&gt;to&amp;nbsp;&lt;span style=&quot;background-color: initial;&quot;&gt;save to SDCard&lt;/span&gt;&lt;/font&gt;&lt;/div&gt;" style="rhombus;whiteSpace=wrap;html=1;" vertex="1" parent="1">
          <mxGeometry x="387.5" y="1685.5" width="186" height="75" as="geometry" />
        </mxCell>
        <mxCell id="sMh_wkTlDlG_Dic9zlam-38" value="" style="endArrow=classic;html=1;rounded=0;exitX=1;exitY=0.5;exitDx=0;exitDy=0;entryX=0;entryY=0.5;entryDx=0;entryDy=0;" edge="1" parent="1" source="sMh_wkTlDlG_Dic9zlam-26" target="sMh_wkTlDlG_Dic9zlam-37">
          <mxGeometry width="50" height="50" relative="1" as="geometry">
            <mxPoint x="373.5" y="1528" as="sourcePoint" />
            <mxPoint x="423.5" y="1478" as="targetPoint" />
          </mxGeometry>
        </mxCell>
        <mxCell id="sMh_wkTlDlG_Dic9zlam-39" value="True" style="text;html=1;align=center;verticalAlign=middle;whiteSpace=wrap;rounded=0;" vertex="1" parent="1">
          <mxGeometry x="559.5" y="1699" width="60" height="30" as="geometry" />
        </mxCell>
        <mxCell id="sMh_wkTlDlG_Dic9zlam-40" value="" style="endArrow=classic;html=1;rounded=0;exitX=0.5;exitY=1;exitDx=0;exitDy=0;entryX=0;entryY=0.5;entryDx=0;entryDy=0;" edge="1" parent="1" source="sMh_wkTlDlG_Dic9zlam-37" target="sMh_wkTlDlG_Dic9zlam-23">
          <mxGeometry width="50" height="50" relative="1" as="geometry">
            <mxPoint x="373.5" y="1528" as="sourcePoint" />
            <mxPoint x="423.5" y="1478" as="targetPoint" />
            <Array as="points">
              <mxPoint x="213.5" y="1761" />
            </Array>
          </mxGeometry>
        </mxCell>
        <mxCell id="sMh_wkTlDlG_Dic9zlam-41" value="False" style="text;html=1;align=center;verticalAlign=middle;whiteSpace=wrap;rounded=0;" vertex="1" parent="1">
          <mxGeometry x="365.5" y="1738" width="60" height="30" as="geometry" />
        </mxCell>
      </root>
    </mxGraphModel>
  </diagram>
</mxfile>
